<svg width="158" height="50" viewBox="0 0 158 50" fill="none" xmlns="http://www.w3.org/2000/svg">
<g clip-path="url(#clip0_1_674)">
<path d="M155.21 29.1218C107.986 56.355 50.0149 56.355 2.68725 29.1218C0.413718 27.7652 -0.619518 25.2612 0.413718 23.5917L13.7439 1.67986C14.7772 0.0099415 17.0507 -0.407538 18.9105 0.635741C56.1116 22.1305 101.889 22.1305 139.193 0.635741C141.053 -0.407538 143.327 0.0099415 144.36 1.67944L157.69 23.5908C158.62 25.2608 157.587 27.7652 155.21 29.1218Z" fill="white"/>
<path d="M154.074 29.8518C107.573 56.6679 50.4282 56.6679 3.92712 29.8518C1.65359 28.4952 0.62035 25.9911 1.65359 24.4262C5.99401 17.2266 10.334 10.0269 14.7776 2.82728C15.8108 1.15778 18.0839 0.740304 19.8406 1.784C56.5249 22.8609 101.476 22.8609 138.16 1.784C139.916 0.740304 142.19 1.15778 143.223 2.82728C147.564 10.0269 152.007 17.2266 156.347 24.4262C157.38 26.0957 156.347 28.5997 154.074 29.8518Z" fill="#004C94"/>
<path d="M27.5914 12.0093C24.6975 10.6527 21.8044 9.29652 19.0145 7.7316C18.7043 7.62702 18.3941 7.7316 18.291 7.93992L9.09376 24.9478C8.99064 25.0524 8.99064 25.2607 9.09376 25.3653C9.09376 25.4695 9.1977 25.6782 9.40435 25.6782C10.3341 26.1998 11.2642 26.7219 12.2974 27.2435C12.4009 27.3477 12.6076 27.3477 12.7107 27.2435C12.8142 27.2435 13.0209 27.139 13.0209 26.9306L20.461 12.3226C21.3911 12.7397 22.2177 13.2617 23.1479 13.6792L16.121 28.4956C16.0175 28.8085 16.121 29.1214 16.4308 29.2259C17.3609 29.6434 18.3941 30.1651 19.3247 30.5825H19.7376L20.0477 30.2692L27.9012 12.6355C28.0047 12.4268 27.798 12.1135 27.5914 12.0093Z" fill="white"/>
<path d="M35.6514 15.3483C34.1014 14.7225 32.5513 14.2009 31.0013 13.4705C30.8977 13.3659 30.6911 13.3659 30.588 13.4705L30.2778 13.7834L22.9412 31.6259C22.8376 31.7304 22.8376 31.9392 22.9412 32.0433L23.2509 32.3562C24.2846 32.7737 25.2143 33.1912 26.2479 33.5041H26.6612L26.971 33.1912L29.2445 27.2436C29.8645 27.4523 30.4844 27.6611 31.1044 27.974C32.4478 28.4956 33.5846 28.4956 34.4111 28.0781C35.2381 27.6611 35.8581 26.9307 36.2714 25.7828L38.1312 20.3568C38.8547 17.957 38.0281 16.1833 35.6514 15.3483ZM33.8947 18.3744C34.5143 18.5832 34.5143 18.7919 34.308 19.1052L32.4478 24.2175C32.4478 24.3221 32.3447 24.5308 32.2411 24.635H31.7247C31.311 24.5308 30.8977 24.3221 30.4844 24.2175L32.8611 18.1657C33.1713 18.0615 33.5846 18.2703 33.8947 18.3744Z" fill="white"/>
<path d="M48.0515 19.209L45.5713 18.5832C43.1947 17.9574 41.5415 18.7919 40.818 21.1914L37.098 33.3999C36.7878 34.5478 36.7878 35.4873 37.2011 36.3219C37.7179 37.261 38.648 37.8868 40.095 38.3043C41.0247 38.6172 41.9548 38.8259 42.988 39.0347C43.608 39.1388 44.1248 39.2434 44.6412 39.2434C45.2969 39.2453 45.9405 39.0648 46.5014 38.7218C47.328 38.1997 47.8449 37.3652 48.0515 36.2173L50.8415 23.8008C51.4614 21.4005 50.4282 19.8352 48.0515 19.209ZM47.0183 23.0696L44.0213 35.069C44.0213 35.1736 43.9182 35.3823 43.8146 35.4865C43.7115 35.5911 43.5049 35.5911 43.2982 35.4865C42.7814 35.3823 42.2646 35.1736 41.7481 35.069C41.438 34.9649 41.2313 34.8607 41.1278 34.7561C41.1278 34.7561 41.0247 34.652 41.1278 34.3386L44.4346 22.4438C44.5381 22.1309 44.6412 21.9222 45.2616 22.0263L46.5014 22.3392C47.1214 22.548 47.1214 22.7563 47.0183 23.0696Z" fill="white"/>
<path d="M59.729 21.6088C59.1086 21.5046 58.5922 21.4001 57.9723 21.2959C55.4921 20.8784 53.942 21.9217 53.5287 24.4262L51.0485 36.9472C50.8419 38.0951 50.9454 39.0342 51.4618 39.8687C52.0818 40.7033 53.1154 41.3295 54.562 41.5382C55.1819 41.6424 55.9054 41.747 56.5253 41.8511C56.9386 41.9557 57.2488 41.9557 57.6621 41.9557C58.5922 41.9557 59.4188 41.747 60.0387 41.2249C60.7622 40.7033 61.1755 39.7646 61.3821 38.6167L61.5888 37.3647C61.5888 37.2601 61.5888 37.0514 61.4857 36.9472C61.3821 36.8426 61.2786 36.7385 61.072 36.7385C60.0387 36.6343 59.1086 36.4256 58.0754 36.321C57.7656 36.321 57.4554 36.5297 57.4554 36.8426L57.3519 37.8863C57.3519 37.9905 57.2488 38.1992 57.1453 38.3034C57.0421 38.408 56.8355 38.408 56.6288 38.408L55.8018 38.1992C55.5952 38.1992 55.3885 38.0951 55.2854 37.9905C55.1819 37.8863 55.1819 37.6776 55.2854 37.573L57.3519 25.3653C57.4554 24.9478 57.5585 24.8436 57.9723 24.9478L58.4887 25.052C59.1086 25.1565 59.1086 25.3653 59.1086 25.6782L58.7988 27.6606C58.7988 27.9739 59.0055 28.2864 59.3153 28.2864C60.2454 28.3914 61.1755 28.5997 62.1056 28.7043C62.4154 28.7043 62.7256 28.4955 62.7256 28.1822L63.0353 25.9911C63.3455 23.487 62.2087 22.0263 59.729 21.6088Z" fill="white"/>
<path d="M74.0924 22.9655C71.5087 22.8613 68.8223 22.6526 66.239 22.4438C66.1355 22.4438 65.9288 22.4438 65.8253 22.548C65.7222 22.6526 65.6186 22.7567 65.6186 22.9655L65.412 25.2612C65.412 25.5741 65.6186 25.887 65.9288 25.887C66.6523 25.9916 67.2722 25.9916 67.9957 26.0957L66.6523 42.4774C66.6523 42.582 66.6523 42.7907 66.7554 42.8949C66.8589 42.9995 66.962 43.1036 67.1687 43.1036C68.2023 43.2078 69.2356 43.3124 70.2688 43.3124C70.579 43.3124 70.7856 43.1036 70.7856 42.7907L71.7158 26.4091C72.4388 26.4091 73.0588 26.5132 73.7822 26.5132C74.0924 26.5132 74.4022 26.3045 74.4022 25.9916L74.5057 23.6959C74.5057 23.5917 74.5057 23.383 74.4022 23.2784C74.4022 23.0701 74.1955 22.9655 74.0924 22.9655Z" fill="white"/>
<path d="M83.1853 23.0696C82.3587 23.0696 81.4286 23.0696 80.602 23.1738C78.1218 23.1738 76.7784 24.5304 76.7784 27.0344L76.5718 39.66C76.5718 40.8079 76.882 41.747 77.5019 42.4774C78.2254 43.2078 79.2586 43.5207 80.7051 43.5207H80.8087C81.7388 43.5207 82.772 43.5207 83.7022 43.4165C85.1487 43.4165 86.2854 42.8949 87.0089 42.1641C87.6289 41.4337 87.9386 40.4946 87.8355 39.3471L87.112 26.6169C87.0089 24.2175 85.6655 22.9655 83.1853 23.0696ZM83.8053 39.4513C83.8053 39.5559 83.8053 39.7642 83.7022 39.8688C83.5986 39.9729 83.392 39.9729 83.1853 39.9729H81.6353C81.3251 39.9729 81.0153 39.9729 80.9118 39.7642C80.9118 39.7642 80.8087 39.66 80.8087 39.3471L80.7051 27.139C80.7051 26.7215 80.8087 26.6174 81.3251 26.6174H82.772C83.2889 26.6174 83.392 26.8261 83.392 27.139L83.8053 39.4513Z" fill="white"/>
<path d="M100.856 21.2959C100.752 21.1918 100.546 21.1918 100.442 21.1918C99.5121 21.2959 98.6856 21.5047 97.7554 21.6088C97.4457 21.6088 97.239 21.9222 97.239 22.2351L98.3758 29.7476C97.5488 29.8522 96.8257 29.9563 95.9987 30.0605L95.069 22.6525C95.069 22.548 94.9655 22.3392 94.8624 22.2351C94.7588 22.1309 94.5522 22.1309 94.4491 22.1309C93.519 22.2351 92.6924 22.3392 91.7622 22.4438C91.4521 22.4438 91.2454 22.7567 91.2454 23.0696L93.2088 42.2686C93.2088 42.3732 93.3123 42.582 93.4154 42.6861C93.519 42.7907 93.6221 42.7907 93.7256 42.7907H93.8287L96.9288 42.4774C97.0324 42.4774 97.239 42.3732 97.3421 42.2686C97.4457 42.1645 97.4457 41.9557 97.4457 41.8516L96.4124 33.7128L98.8922 33.3995L100.133 41.5382C100.133 41.8516 100.442 42.0599 100.752 42.0599C101.786 41.8516 102.819 41.747 103.853 41.5382C103.956 41.5382 104.162 41.4341 104.266 41.3295C104.369 41.2253 104.369 41.0166 104.369 40.9125L101.062 21.8176C101.062 21.5047 100.959 21.4001 100.856 21.2959Z" fill="white"/>
<path d="M113.98 22.1305C113.36 19.7306 111.706 18.7915 109.226 19.4177C108.606 19.6265 107.883 19.7306 107.263 19.9394C104.886 20.461 103.853 22.1305 104.266 24.5304L107.47 40.1817C107.573 40.495 107.779 40.5992 107.986 40.5992H108.09L111.19 39.9734C111.499 39.8688 111.706 39.5559 111.603 39.2426L110.156 32.8779C110.879 32.6692 111.603 32.565 112.43 32.3563L113.98 38.7209C113.98 38.8255 114.083 39.0343 114.29 39.0343C114.393 39.1384 114.6 39.1384 114.703 39.1384C115.736 38.9297 116.77 38.6168 117.803 38.3039C117.906 38.3039 118.113 38.1993 118.113 37.9906C118.216 37.8864 118.216 37.6777 118.216 37.5731L113.98 22.1305ZM109.433 29.5393L108.193 23.8C108.09 23.4871 108.09 23.2784 108.709 23.0696L109.433 22.8609H109.743C110.053 22.8609 110.156 23.0696 110.156 23.2784L111.603 28.9131L109.433 29.5393Z" fill="white"/>
<path d="M130.1 12.7398L129.79 12.4269C129.686 12.3223 129.48 12.4269 129.376 12.4269C128.55 12.8439 127.723 13.1572 126.896 13.4701L126.586 13.783C126.483 13.8876 126.483 14.0959 126.586 14.2005L132.787 29.3302C132.063 29.6431 131.34 29.956 130.617 30.1647L124.83 14.8263C124.726 14.5134 124.416 14.4093 124.106 14.5134C123.28 14.8267 122.349 15.1392 121.523 15.4525C121.419 15.4525 121.316 15.6613 121.213 15.7654C121.11 15.87 121.11 16.0788 121.213 16.1829L126.689 31.6255C125.966 31.9388 125.243 32.1475 124.519 32.3563L119.353 16.8091C119.353 16.7046 119.249 16.4962 119.043 16.4962C118.94 16.3917 118.733 16.3917 118.629 16.4962C117.803 16.8091 116.873 17.0179 116.046 17.3308C115.942 17.3308 115.736 17.4349 115.736 17.6437C115.633 17.7483 115.633 17.957 115.736 18.0612L121.419 36.5298C121.419 36.634 121.523 36.8427 121.729 36.8427C121.833 36.8427 121.936 36.9473 122.04 36.9473H122.246C127.516 35.2778 132.787 33.295 137.746 31.1038C138.057 30.9997 138.16 30.6868 138.057 30.3735L130.1 12.7398Z" fill="white"/>
<path d="M148.804 24.9478L147.667 22.8608C147.564 22.5479 147.15 22.4438 146.944 22.6525C145.703 23.2783 144.567 23.9041 143.327 24.5303L140.95 19.8347C141.983 19.3135 143.017 18.7919 143.947 18.2698C144.257 18.1656 144.36 17.7482 144.153 17.5394L143.017 15.4529L142.707 15.1395H142.294C141.363 15.6612 140.33 16.1832 139.4 16.7049L137.334 12.4268C138.47 11.9051 139.504 11.2789 140.537 10.7573C140.847 10.6531 140.95 10.2356 140.743 10.0269L139.607 7.9399C139.504 7.627 139.09 7.52284 138.883 7.73116C136.92 8.87902 134.853 9.92272 132.787 10.8614C132.477 10.966 132.373 11.3835 132.477 11.5922L140.64 29.0172L140.95 29.3301H141.157C141.26 29.3301 141.363 29.3301 141.363 29.2259C143.74 28.0781 146.117 26.826 148.494 25.574L148.804 25.2607C148.907 25.2607 148.907 25.0524 148.804 24.9478Z" fill="white"/>
</g>
<defs>
<clipPath id="clip0_1_674">
<rect width="158" height="50" fill="white"/>
</clipPath>
</defs>
</svg>
