<svg width="42" height="46" viewBox="0 0 42 46" fill="none" xmlns="http://www.w3.org/2000/svg">
<path d="M37.368 16.4693C34.6318 14.4806 31.3713 13.3403 27.992 13.1901C25.498 13.005 22.9911 13.1054 20.5199 13.4894L19.3735 6.89521C19.1402 5.78427 18.4764 4.81093 17.5274 4.18805C16.5784 3.56517 15.4214 3.34344 14.3093 3.57137C13.1856 3.73215 12.1713 4.33139 11.4882 5.23802C10.8051 6.14466 10.5088 7.28491 10.6642 8.40939L12.8273 20.8513L10.4948 19.2315C9.46834 18.5238 8.2052 18.247 6.97683 18.4605C5.74845 18.6741 4.65287 19.361 3.9255 20.3737C3.55994 20.8745 3.29861 21.4436 3.15697 22.0473C3.01533 22.651 2.99627 23.277 3.10091 23.8881C3.28403 25.0766 3.93051 26.1441 4.89886 26.8569L11.8908 32.7168C12.4748 34.4234 13.3716 36.0062 14.5352 37.3843C15.3948 38.4507 16.4206 39.3717 17.573 40.1119L17.9884 42.5007C18.0437 42.842 18.2277 43.1492 18.5026 43.3589C18.7775 43.5686 19.1224 43.665 19.4662 43.6281L36.7728 40.6192C37.1089 40.5379 37.4009 40.3308 37.5889 40.0406C37.7769 39.7504 37.8465 39.3991 37.7834 39.0592L37.1993 35.6999C39.1391 32.3642 39.8216 28.4446 39.1235 24.6496L37.8256 17.1844C37.7602 16.9004 37.5985 16.6477 37.368 16.4693Z" fill="white"/>
<path d="M37.368 16.4693C34.6318 14.4806 31.3713 13.3403 27.992 13.1901C25.498 13.005 22.9911 13.1054 20.5199 13.4894L19.3735 6.89521C19.1402 5.78427 18.4764 4.81093 17.5274 4.18805C16.5784 3.56517 15.4214 3.34344 14.3093 3.57137C13.1856 3.73215 12.1713 4.33139 11.4882 5.23802C10.8051 6.14466 10.5088 7.28491 10.6642 8.40939L12.8273 20.8513L10.4948 19.2315C9.46834 18.5238 8.2052 18.247 6.97682 18.4605C5.74845 18.6741 4.65287 19.361 3.9255 20.3737C3.55994 20.8745 3.29861 21.4436 3.15697 22.0473C3.01533 22.651 2.99627 23.277 3.10091 23.8881C3.28403 25.0766 3.93051 26.1441 4.89886 26.8569L11.8908 32.7168C12.4748 34.4234 13.3716 36.0062 14.5352 37.3843C15.3948 38.4507 16.4206 39.3717 17.573 40.1119L17.9884 42.5007C18.0437 42.842 18.2277 43.1492 18.5026 43.3589C18.7775 43.5686 19.1224 43.665 19.4662 43.6281L36.7728 40.6192C37.1089 40.5379 37.4009 40.3308 37.5889 40.0406C37.7769 39.7504 37.8465 39.3991 37.7834 39.0592L37.1993 35.6999C39.1391 32.3642 39.8216 28.4446 39.1235 24.6496L37.8256 17.1844C37.7602 16.9004 37.5985 16.6477 37.368 16.4693ZM36.646 25.1444C37.3006 28.4385 36.7073 31.8584 34.9815 34.7396C34.7446 35.0104 34.622 35.3626 34.6396 35.7219L35.1068 38.4094L20.3508 40.9748L20.0306 39.1334C19.9955 38.9296 19.9108 38.7375 19.7841 38.574C19.6573 38.4105 19.4923 38.2807 19.3036 38.1959C18.2391 37.5925 17.3053 36.7831 16.5568 35.8151C15.5298 34.6116 14.7623 33.209 14.3024 31.6951C14.2422 31.4282 14.097 31.1881 13.8886 31.0108L6.50828 24.8339C6.27469 24.6718 6.07564 24.4649 5.92265 24.2253C5.76967 23.9856 5.66582 23.718 5.61712 23.4379C5.56842 23.1578 5.57584 22.8708 5.63896 22.5935C5.70208 22.3163 5.81964 22.0544 5.9848 21.823C6.32432 21.3483 6.83692 21.0262 7.41191 20.9262C7.9869 20.8262 8.57813 20.9564 9.05794 21.2887L13.4394 24.3723L14.1187 28.279L16.3907 26.6022L13.1525 7.97677C13.1176 7.5136 13.2638 7.05495 13.5602 6.69739C13.8567 6.33982 14.2803 6.11123 14.7419 6.05974C15.1938 5.9524 15.6698 6.0246 16.0695 6.26112C16.4693 6.49765 16.7616 6.88006 16.8851 7.32783L19.4376 22.0092L22.019 22.1116L20.9547 15.9902C22.0023 15.8287 23.0577 15.7222 24.1165 15.6712L25.2479 22.1783L27.3143 22.2677L26.157 15.6113C26.6844 15.6221 27.2264 15.6433 27.7852 15.6871C28.4596 15.744 29.1304 15.8371 29.7948 15.9658L30.9088 22.3734L32.9752 22.4627L31.9434 16.528C33.174 16.9013 34.3468 17.4437 35.4281 18.1396L36.646 25.1444Z" fill="#1C344A"/>
</svg>
