<svg xmlns="http://www.w3.org/2000/svg" style="display: none">
	<symbol id="close" width="14" height="14">
		<path
			d="M1 1L13 13M1 13L13 1"
			stroke="currentColor"
			stroke-width="2"
			stroke-linecap="round"
		/>
	</symbol>

	<symbol id="arrow-down" width="12" height="7" viewBox="0 0 12 7">
		<path
			class="cls-1"
			d="M5.8,6.5c-.2,0-.4,0-.5-.2L.2,1.3C0,1,0,.5.2.2S1,0,1.3.2l4.5,4.5L10.2.2c.3-.3.8-.3,1.1,0s.3.8,0,1.1l-5,5c-.1.1-.3.2-.5.2Z"
		/>
	</symbol>

	<symbol id="facebook" width="16" height="30" viewBox="0 0 16 30">
		<path
			d="M14.9137 16.8739L15.7558 11.4471H10.5684V7.91973C10.5684 6.43584 11.2926 4.98587 13.6084 4.98587H16V0.364613C14.6073 0.139351 13.2 0.0174851 11.7895 0C7.52 0 4.73263 2.60317 4.73263 7.30921V11.4471H0V16.8739H4.73263V30H10.5684V16.8739H14.9137Z"
			fill="currentColor"
		/>
	</symbol>

	<symbol id="instagram" width="30" height="30">
		<path
			d="M22 0C26.4183 0 30 3.58172 30 8V22C30 26.4183 26.4183 30 22 30H8C3.58172 30 2.25497e-07 26.4183 0 22V8C0 3.58172 3.58172 2.2549e-07 8 0H22ZM15 7.74121C10.9918 7.74135 7.74246 10.9908 7.74219 14.999C7.74219 18.8823 10.7919 22.0538 14.627 22.248L15 22.2578C18.8831 22.2577 22.0545 19.2078 22.249 15.373L22.2588 14.999C22.2585 10.9908 19.0083 7.74128 15 7.74121ZM15 10.7412C17.3514 10.7413 19.2585 12.6476 19.2588 14.999C19.2588 17.3506 17.3516 19.2577 15 19.2578C12.6485 19.2577 10.7422 17.3506 10.7422 14.999C10.7425 12.6477 12.6486 10.7413 15 10.7412ZM23.2266 3.87109C22.1578 3.87132 21.292 4.73787 21.292 5.80664C21.292 6.87544 22.1578 7.74196 23.2266 7.74219C24.2955 7.74219 25.1621 6.87558 25.1621 5.80664C25.1621 4.73772 24.2955 3.87109 23.2266 3.87109Z"
			fill="currentColor"
		/>
	</symbol>

	<symbol id="linkedin" width="30" height="30">
		<path
			d="M23.1585 0H6.84154C5.02705 0 3.28688 0.720803 2.00384 2.00384C0.720803 3.28688 0 5.02705 0 6.84154V23.1585C0 24.9729 0.720803 26.7131 2.00384 27.9962C3.28688 29.2792 5.02705 30 6.84154 30H23.1585C24.9729 30 26.7131 29.2792 27.9962 27.9962C29.2792 26.7131 30 24.9729 30 23.1585V6.84154C30 5.02705 29.2792 3.28688 27.9962 2.00384C26.7131 0.720803 24.9729 0 23.1585 0ZM10.1431 24.2185C10.1479 24.3022 10.1356 24.386 10.1068 24.4648C10.078 24.5436 10.0335 24.6157 9.97584 24.6767C9.91821 24.7376 9.84873 24.7861 9.77166 24.8192C9.69459 24.8524 9.61157 24.8694 9.52769 24.8692H6.78923C6.62409 24.8652 6.46711 24.7966 6.35204 24.678C6.23697 24.5595 6.17299 24.4006 6.17385 24.2354V12.8462C6.17158 12.7639 6.18583 12.6821 6.21574 12.6055C6.24565 12.5288 6.29062 12.459 6.34799 12.4C6.40536 12.3411 6.47397 12.2942 6.54976 12.2623C6.62554 12.2303 6.70697 12.2138 6.78923 12.2138H9.52769C9.60995 12.2138 9.69138 12.2303 9.76717 12.2623C9.84295 12.2942 9.91156 12.3411 9.96893 12.4C10.0263 12.459 10.0713 12.5288 10.1012 12.6055C10.1311 12.6821 10.1453 12.7639 10.1431 12.8462V24.2185ZM8.10769 9.81846C7.81121 9.81624 7.51806 9.75564 7.245 9.64013C6.97193 9.52462 6.72429 9.35645 6.51622 9.14523C6.30815 8.93401 6.14371 8.68388 6.0323 8.40912C5.9209 8.13435 5.8647 7.84033 5.86692 7.54385C5.86915 7.24736 5.92974 6.95422 6.04526 6.68115C6.16077 6.40809 6.32894 6.16045 6.54015 5.95237C6.75137 5.7443 7.0015 5.57986 7.27627 5.46846C7.55104 5.35705 7.84505 5.30085 8.14154 5.30308C8.73003 5.32222 9.28774 5.57058 9.69567 5.99517C10.1036 6.41975 10.3295 6.98695 10.325 7.57574C10.3206 8.16452 10.0863 8.72826 9.67203 9.14669C9.25777 9.56511 8.6964 9.80508 8.10769 9.81538M24.7492 24.2C24.7485 24.3554 24.6875 24.5045 24.579 24.6159C24.4705 24.7272 24.3231 24.7921 24.1677 24.7969H21.2769C21.1213 24.7921 20.9736 24.727 20.8651 24.6153C20.7566 24.5037 20.6957 24.3542 20.6954 24.1985V18.9308C20.6954 18.1446 20.9354 15.5108 18.6092 15.5108C16.7954 15.5108 16.4369 17.3569 16.3677 18.1785V24.3185C16.3678 24.4744 16.3071 24.6243 16.1985 24.7363C16.09 24.8483 15.9421 24.9137 15.7862 24.9185H12.9815C12.8227 24.9181 12.6705 24.8547 12.5583 24.7422C12.4461 24.6297 12.3831 24.4773 12.3831 24.3185V12.7908C12.3879 12.6349 12.4532 12.4869 12.5652 12.3784C12.6772 12.2698 12.8271 12.2092 12.9831 12.2092H15.7862C15.9421 12.2092 16.092 12.2698 16.204 12.3784C16.316 12.4869 16.3814 12.6349 16.3862 12.7908V13.7831C16.7954 13.184 17.3605 12.7081 18.0204 12.4066C18.6803 12.1051 19.41 11.9895 20.1308 12.0723C24.8 12.0723 24.7831 16.4338 24.7831 18.9138L24.7492 24.2Z"
			fill="currentColor"
		/>
	</symbol>

	<symbol id="telegram" width="30" height="25" viewBox="0 0 30 25">
		<path
			d="M1.83925 10.8876C1.83925 10.8876 15.1075 5.39959 19.7092 3.46714C21.4732 2.69423 27.4554 0.220685 27.4554 0.220685C27.4554 0.220685 30.2165 -0.861396 29.9864 1.76662C29.9096 2.84881 29.2961 6.63626 28.6826 10.733C27.7622 16.5302 26.7652 22.8684 26.7652 22.8684C26.7652 22.8684 26.6118 24.6463 25.308 24.9555C24.0042 25.2646 21.8566 23.8734 21.4732 23.5641C21.1664 23.3323 15.7211 19.8539 13.727 18.1534C13.1901 17.6896 12.5766 16.7621 13.8036 15.68C16.5647 13.1292 19.8626 9.96006 21.8566 7.95038C22.777 7.02277 23.6973 4.8585 19.8626 7.48652C14.4173 11.2741 9.0486 14.8297 9.0486 14.8297C9.0486 14.8297 7.82144 15.6026 5.52061 14.9069C3.21968 14.2114 0.535348 13.2838 0.535348 13.2838C0.535348 13.2838 -1.30523 12.1243 1.83925 10.8876Z"
			fill="currentColor"
		/>
	</symbol>

	<symbol id="youtube" width="38" height="30" viewBox="0 0 38 30">
		<path
			fill-rule="evenodd"
			clip-rule="evenodd"
			d="M18.9844 9.38572e-08C23.4464 9.38572e-08 26.8628 -0.00104554 29.4404 0.22168C31.9928 0.442257 33.9436 0.893286 35.3213 1.96484C36.7552 3.08024 37.382 4.71185 37.6787 6.78906C37.972 8.84226 37.9688 11.5478 37.9688 15.001C37.9688 18.4541 37.972 21.1588 37.6787 23.2119C37.382 25.289 36.755 26.9198 35.3213 28.0352C33.9436 29.1067 31.9928 29.5587 29.4404 29.7793C26.8628 30.002 23.4464 30 18.9844 30C14.5223 30 11.106 30.002 8.52832 29.7793C5.97611 29.5587 4.02613 29.1066 2.64844 28.0352C1.21451 26.9198 0.586806 25.2891 0.290041 23.2119C-0.00325631 21.1588 1.17205e-06 18.4541 1.56316e-06 15.001C1.56316e-06 11.5478 -0.00320702 8.84225 0.290041 6.78906C0.586807 4.7118 1.21446 3.08025 2.64844 1.96484C4.02612 0.893516 5.97621 0.442235 8.52832 0.22168C11.106 -0.00105701 14.5223 7.95046e-08 18.9844 9.38572e-08ZM15 21.9736L26.9531 15.001L15 8.02734V21.9736Z"
			fill="currentColor"
		/>
	</symbol>
</svg>
